<svg width="42" height="52" viewBox="0 0 42 52" fill="none" xmlns="http://www.w3.org/2000/svg">
<rect width="42" height="52" rx="8.49973" fill="#2D2D2D"/>
<path d="M21.7884 26.0005C23.8379 23.951 26.5695 21.2194 26.9722 20.8167C28.2174 19.5715 28.2174 17.5539 26.9722 16.3087C25.727 15.0635 23.7093 15.0635 22.4641 16.3087C21.8415 16.9313 15.6495 23.1233 15.0269 23.7459C14.8717 23.9011 14.7347 24.0689 14.6189 24.2464C13.9187 25.3067 13.9187 26.6932 14.6189 27.7536C14.7357 27.9299 14.8717 28.0978 15.0269 28.254C15.6495 28.8766 21.8415 35.0686 22.4641 35.6912C23.7093 36.9365 25.727 36.9365 26.9722 35.6912C28.2174 34.446 28.2174 32.4284 26.9722 31.1832C26.5684 30.7816 23.8368 28.05 21.7884 26.0005Z" fill="url(#paint0_linear_241_570)"/>
<path d="M24.7176 15.9072C25.4274 15.9072 26.0946 16.1835 26.5961 16.6849C27.0975 17.1864 27.3738 17.8536 27.3738 18.5634C27.3738 19.2731 27.0975 19.9403 26.5961 20.4418L21.4123 25.6256L21.0372 26.0006L21.4134 26.3768L26.5971 31.5605C27.0975 32.061 27.3738 32.7282 27.3738 33.4379C27.3738 34.1476 27.0975 34.8149 26.5961 35.3164C26.0946 35.8178 25.4274 36.0941 24.7176 36.0941C24.0079 36.0941 23.3407 35.8178 22.8392 35.3164L16.4006 28.8778L15.4019 27.8791C15.2744 27.7516 15.1597 27.6113 15.0609 27.4615C14.4744 26.5744 14.4744 25.4269 15.0609 24.5398C15.1597 24.391 15.2744 24.2497 15.4019 24.1222L22.8392 16.6849C23.3407 16.1835 24.0079 15.9072 24.7176 15.9072ZM24.7176 15.376C23.9016 15.376 23.0857 15.6873 22.4641 16.3099C21.8415 16.9325 15.6495 23.1245 15.0269 23.7472C14.8717 23.9023 14.7347 24.0701 14.6189 24.2476C13.9187 25.3079 13.9187 26.6944 14.6189 27.7548C14.7357 27.9311 14.8717 28.099 15.0269 28.2552C15.6495 28.8778 21.8415 35.0699 22.4641 35.6925C23.0857 36.314 23.9016 36.6253 24.7176 36.6253C25.5336 36.6253 26.3496 36.314 26.9711 35.6914C28.2163 34.4462 28.2163 32.4286 26.9711 31.1834C26.5684 30.7807 23.8368 28.0491 21.7873 25.9996C23.8368 23.9501 26.5684 21.2185 26.9711 20.8158C28.2163 19.5706 28.2163 17.553 26.9711 16.3078C26.3496 15.6873 25.5336 15.376 24.7176 15.376Z" fill="url(#paint1_linear_241_570)"/>
<defs>
<linearGradient id="paint0_linear_241_570" x1="18.7452" y1="20.028" x2="30.6901" y2="31.9729" gradientUnits="userSpaceOnUse">
<stop stop-color="white" stop-opacity="0.6"/>
<stop offset="1" stop-color="white" stop-opacity="0.3"/>
</linearGradient>
<linearGradient id="paint1_linear_241_570" x1="18.7452" y1="20.0282" x2="30.6901" y2="31.9731" gradientUnits="userSpaceOnUse">
<stop stop-color="white" stop-opacity="0.6"/>
<stop offset="0.4927" stop-color="white" stop-opacity="0"/>
<stop offset="0.9971" stop-color="white" stop-opacity="0.3"/>
</linearGradient>
</defs>
</svg>
